<svg width="51" height="51" viewBox="0 0 51 51" fill="none" xmlns="http://www.w3.org/2000/svg">
<g clip-path="url(#clip0_1161_5606)">
<path d="M50.2169 0H0V50.2169H50.2169V0Z" fill="black"/>
<path d="M31.1441 18.1391C31.1441 21.4333 28.4123 24.1651 25.1181 24.1651C21.8238 24.1651 19.092 21.4333 19.092 18.1391C19.092 14.8448 21.8238 12.113 25.1181 12.113C28.4123 12.113 31.1441 14.7645 31.1441 18.1391Z" fill="white"/>
<path d="M29.339 34.1626C29.339 36.447 27.4625 38.3234 25.1782 38.3234C22.8938 38.3234 21.0173 36.447 21.0173 34.1626C21.0173 31.8782 22.8938 30.0018 25.1782 30.0018C27.4625 30.0018 29.339 31.8782 29.339 34.1626Z" fill="white"/>
</g>
<defs>
<clipPath id="clip0_1161_5606">
<path d="M0 11.4781C0 5.13893 5.13894 0 11.4781 0H38.7387C45.0779 0 50.2169 5.13894 50.2169 11.4781V38.7387C50.2169 45.0779 45.0779 50.2169 38.7387 50.2169H11.4781C5.13893 50.2169 0 45.0779 0 38.7387V11.4781Z" fill="white"/>
</clipPath>
</defs>
</svg>
