<svg width="36" height="36" viewBox="0 0 36 36" fill="none" xmlns="http://www.w3.org/2000/svg">
<g clip-path="url(#clip0_5705_11120)">
<path d="M17.3703 1.83417C17.7406 1.1038 18.7838 1.1038 19.1541 1.83417L21.2177 5.90419C21.4783 6.41819 22.1183 6.60611 22.6155 6.3146L26.5519 4.00635C27.2583 3.59213 28.1359 4.15612 28.0525 4.97076L27.5881 9.51034C27.5295 10.0836 27.9663 10.5877 28.5421 10.6113L33.1015 10.7976C33.9198 10.8311 34.3531 11.78 33.8426 12.4203L30.9976 15.9881C30.6383 16.4387 30.7332 17.0989 31.2049 17.43L34.9398 20.0519C35.6101 20.5223 35.4616 21.5549 34.686 21.8175L30.3637 23.2809C29.8178 23.4657 29.5407 24.0724 29.7585 24.606L31.4831 28.8308C31.7926 29.589 31.1094 30.3774 30.3149 30.179L25.8876 29.0732C25.3285 28.9336 24.7674 29.2942 24.6622 29.8608L23.8288 34.3473C23.6793 35.1525 22.6783 35.4464 22.1172 34.8499L18.9906 31.5261C18.5957 31.1064 17.9287 31.1064 17.5338 31.5261L14.4072 34.8499C13.8461 35.4464 12.8452 35.1525 12.6956 34.3473L11.8623 29.8608C11.757 29.2942 11.1959 28.9336 10.6368 29.0732L6.20948 30.179C5.415 30.3774 4.73186 29.589 5.04133 28.8308L6.76588 24.606C6.98367 24.0724 6.70658 23.4657 6.16072 23.2809L1.83845 21.8175C1.06281 21.5549 0.91435 20.5223 1.58459 20.0519L5.3195 17.43C5.79118 17.0989 5.88611 16.4387 5.52681 15.9881L2.68185 12.4203C2.17131 11.78 2.60466 10.8311 3.42287 10.7976L7.98234 10.6113C8.55815 10.5877 8.99496 10.0836 8.9363 9.51034L8.4719 4.97076C8.38856 4.15612 9.26614 3.59213 9.97254 4.00635L13.909 6.3146C14.4061 6.60611 15.0461 6.41819 15.3067 5.90419L17.3703 1.83417Z" fill="#FF5D03"/>
<path d="M8.93901 22.2175L8.47861 16.3407L9.82187 16.2355L12.6711 20.5821L12.3153 16.0402L13.3227 15.9613L13.7831 21.838L12.4399 21.9432L9.58866 17.5715L9.94645 22.1386L8.93901 22.2175ZM15.2109 21.7261L14.7505 15.8494L19.1329 15.5061L19.2033 16.4044L15.8283 16.6688L15.9467 18.1799L18.8179 17.955L18.8883 18.8533L16.0171 19.0782L16.148 20.7489L19.6068 20.4779L19.6772 21.3762L15.2109 21.7261ZM21.6268 21.2235L19.7308 15.4592L20.7719 15.3777L22.2382 20.0775L22.9127 15.21L24.172 15.1113L25.5808 19.8325L26.254 14.9482L27.3034 14.866L26.3198 20.8558L24.9934 20.9598L23.6197 16.4723L22.9533 21.1196L21.6268 21.2235Z" fill="white"/>
</g>
<defs>
<clipPath id="clip0_5705_11120">
<rect width="35" height="35" fill="white" transform="translate(0.761719 0.753418)"/>
</clipPath>
</defs>
</svg>
