<?xml version="1.0" encoding="UTF-8"?>
<svg id="Layer_1" data-name="Layer 1" xmlns="http://www.w3.org/2000/svg" version="1.1" viewBox="0 0 215.1 29.7">
  <defs>
    <style>
      .cls-1, .cls-2 {
        fill: #1f1b1b;
        stroke-width: 0px;
      }

      .cls-2 {
        fill-rule: evenodd;
      }
    </style>
  </defs>
  <path class="cls-2" d="M18.2,8.7c-1-2.5-3-3.8-5.9-3.8s-4.5.8-4.5,3.1,4.5,3.9,6.7,4.3c5.1,1,10.2,2.6,10.2,8.6s-6.2,8.7-11.5,8.7c-2.8,0-5.5-.7-7.9-2-2.4-1.3-4.2-3.6-5.3-6.8l5.4-1.7c1.3,3.4,4,5.4,8,5.4s5.7-.7,5.7-3.5c0-3.1-4.3-3.8-6.6-4.1-6.8-1-10.2-4-10.2-9S7.9,0,12.7,0s9.1,2.3,10.8,7.1l-5.2,1.6Z"/>
  <path class="cls-2" d="M28.4,29.3V.4h5.3v12.8c1.2-2.6,3.6-3.9,6.5-3.9,4.6,0,7.2,2.9,7.2,7.4v12.5h-5.2v-11.3c0-2.6-1.3-4.3-4-4.3s-4.4,2.7-4.4,5.4v10.1h-5.3Z"/>
  <path class="cls-1" d="M50.9,19.6c0-5.6,3.7-10.3,9.5-10.3s5,.9,6.2,3.1v-2.7h5.3v19.6h-5.1v-2.9c-1.4,2.2-3.5,3.3-6.4,3.3-5.9,0-9.5-4.5-9.5-10.1ZM66.8,19.6c0-3.2-2.1-5.7-5.4-5.7s-5.3,2.6-5.3,5.7,2.1,5.6,5.3,5.6c3.3,0,5.4-2.5,5.4-5.6Z"/>
  <path class="cls-2" d="M82.1,9.7v2.5c.9-1.9,2.6-2.9,4.7-2.9,3.5,0,5.6,2.4,5.6,5.8s0,1.6-.3,2.4h-5c.1-.5.2-1,.2-1.5,0-1.5-1-2.4-2.5-2.4s-2.7,1.3-2.7,3.1v12.6h-5.3V9.7h5.2Z"/>
  <path class="cls-1" d="M109,21.8l4.5,1.8c-1.5,4.1-4.8,6.1-9.1,6.1-6.2,0-10.3-4.2-10.3-10.3s4-10.1,9.7-10.1,9.1,3.4,9.1,8.8,0,1.6-.2,2.4h-13.3c0,2.9,2.3,4.7,5.2,4.7,2.4,0,3.9-1.1,4.5-3.4ZM99.4,17h8.3v-.2c0-.9-.3-1.8-1-2.4-.8-.6-1.7-.9-2.9-.9-2.1,0-3.9,1.3-4.4,3.4Z"/>
  <path class="cls-1" d="M150.1,19.6c0-5.6,3.7-10.3,9.5-10.3s5,.9,6.2,3.1v-2.7h5.3v19.6h-5v-2.9c-1.4,2.2-3.5,3.3-6.4,3.3-5.9,0-9.6-4.5-9.6-10.1ZM166.1,19.6c0-3.2-2.1-5.7-5.4-5.7s-5.3,2.6-5.3,5.7,2.1,5.6,5.3,5.6c3.3,0,5.4-2.5,5.4-5.6Z"/>
  <path class="cls-2" d="M178.9,22.7v-8.6h-4v-4.3h4V3.3h5.2v6.4h7.3v4.3h-7.3v8.6c0,1.4.8,2.4,2.2,2.4s2.1-.9,2.3-2.7l4.9.9c-.6,4.1-3.1,6.5-7.3,6.5s-7.3-2.4-7.3-7Z"/>
  <path class="cls-1" d="M210.6,21.8l4.5,1.8c-1.5,4.1-4.8,6.1-9.1,6.1-6.2,0-10.3-4.2-10.3-10.3s4-10.1,9.7-10.1,9.1,3.4,9.1,8.8,0,1.6-.3,2.4h-13.3c0,2.9,2.3,4.7,5.2,4.7s3.9-1.1,4.5-3.4ZM200.9,17h8.3v-.2c0-.9-.3-1.8-1-2.4-.8-.6-1.7-.9-2.9-.9-2.2,0-4,1.3-4.4,3.4Z"/>
  <path class="cls-2" d="M130.8,18.8h8.4c-.7,3.5-4.1,5.7-7.5,5.7-5.6,0-9.1-4.1-9.1-9.7s3.6-9.7,9.2-9.7,6,1.4,7.5,4l5.5-1.7c-2.3-5-7.1-7.5-13-7.5-8.3,0-14.8,6.4-14.8,14.8s5.7,14.8,14.3,14.8,8.4-2,10.3-6.4v6h4.6v-15.3h-15.2v4.8Z"/>
</svg>