<svg width="30" height="31" viewBox="0 0 30 31" fill="none" xmlns="http://www.w3.org/2000/svg">
<g clip-path="url(#clip0_5833_51759)">
<path d="M13.751 18.0859C18.5835 18.0859 22.501 14.1684 22.501 9.33593C22.501 4.50344 18.5835 0.585938 13.751 0.585938C8.91848 0.585938 5.00098 4.50344 5.00098 9.33593C5.00098 14.1684 8.91848 18.0859 13.751 18.0859Z" fill="#036C70"/>
<path d="M22.5007 24.3359C26.6429 24.3359 30.0007 20.9781 30.0007 16.8359C30.0007 12.6938 26.6429 9.33594 22.5007 9.33594C18.3586 9.33594 15.0007 12.6938 15.0007 16.8359C15.0007 20.9781 18.3586 24.3359 22.5007 24.3359Z" fill="#1A9BA1"/>
<path d="M15.0009 30.5858C18.4526 30.5858 21.2508 27.7876 21.2508 24.3359C21.2508 20.8841 18.4526 18.0859 15.0009 18.0859C11.5492 18.0859 8.75098 20.8841 8.75098 24.3359C8.75098 27.7876 11.5492 30.5858 15.0009 30.5858Z" fill="#37C6D0"/>
<path opacity="0.5" d="M17.2922 8.08594H5.08979C4.69599 10.8313 5.62604 13.6009 7.59699 15.5522C9.56794 17.5034 12.3468 18.4057 15.088 17.9843C15.0933 18.0188 15.0994 18.0529 15.1051 18.0872C15.0703 18.0867 15.0355 18.0859 15.0005 18.0859C14.342 18.0854 13.6876 18.1891 13.0615 18.393C13.2386 18.3864 13.414 18.3742 13.5888 18.3591L13.5971 18.4136C13.3324 18.4205 13.0683 18.4434 12.8064 18.4824C9.92985 19.564 8.26421 22.5741 8.87565 25.5859H17.0058C17.9238 25.5261 18.6629 24.8091 18.7505 23.8932V9.5443C18.7481 8.73986 18.0966 8.08831 17.2922 8.08594Z" fill="black"/>
<path d="M16.0421 6.83594H1.45881C0.653403 6.83594 0.000488281 7.48885 0.000488281 8.29426V22.8775C0.000488281 23.6829 0.653403 24.3358 1.45881 24.3358H16.0421C16.8475 24.3358 17.5004 23.6829 17.5004 22.8775V8.29426C17.5004 7.48885 16.8475 6.83594 16.0421 6.83594Z" fill="#03787C"/>
<path d="M6.42024 15.4114C6.08318 15.1882 5.80176 14.8907 5.5976 14.5418C5.39906 14.1771 5.30018 13.7666 5.31092 13.3515C5.2935 12.79 5.48308 12.2416 5.8436 11.8107C6.22235 11.3792 6.71209 11.0598 7.25962 10.8871C7.88382 10.6814 8.53766 10.58 9.19485 10.587C10.0589 10.5553 10.9217 10.6763 11.7437 10.9443V12.7447C11.3864 12.5279 10.9973 12.3686 10.5906 12.2727C10.1493 12.1641 9.69647 12.1098 9.24204 12.1108C8.76308 12.0936 8.28721 12.1943 7.85627 12.404C7.5238 12.5477 7.30806 12.8747 7.30682 13.2369C7.30467 13.4564 7.38816 13.6681 7.53956 13.827C7.7194 14.0135 7.93186 14.1654 8.16643 14.2753C8.42963 14.4058 8.82188 14.5789 9.34318 14.7945C9.40096 14.8128 9.4573 14.8353 9.51176 14.8619C10.0262 15.0632 10.5225 15.3079 10.9952 15.5937C11.3532 15.8144 11.6537 16.1171 11.8718 16.4768C12.0965 16.8837 12.206 17.3441 12.1887 17.8086C12.2141 18.3853 12.0377 18.9528 11.6897 19.4134C11.3424 19.837 10.8781 20.1489 10.3546 20.3102C9.73956 20.5031 9.09763 20.5965 8.45311 20.5867C7.87587 20.5892 7.2995 20.5418 6.73041 20.4451C6.24908 20.3684 5.77908 20.2325 5.33112 20.0405V18.139C5.76001 18.4449 6.2393 18.6731 6.74713 18.8133C7.2517 18.9707 7.77627 19.0547 8.30476 19.0628C8.79418 19.0939 9.28276 18.9901 9.71728 18.7628C10.0193 18.5895 10.2019 18.2645 10.1928 17.9165C10.1946 17.6737 10.0986 17.4404 9.92653 17.2691C9.71168 17.0586 9.4632 16.8854 9.19133 16.7566C8.87899 16.5994 8.41714 16.3926 7.80577 16.1363C7.32098 15.9413 6.85684 15.6985 6.42024 15.4114Z" fill="white"/>
</g>
<defs>
<clipPath id="clip0_5833_51759">
<rect width="30" height="30" fill="white" transform="translate(0 0.585938)"/>
</clipPath>
</defs>
</svg>
