<svg width="30" height="31" viewBox="0 0 30 31" fill="none" xmlns="http://www.w3.org/2000/svg">
<path d="M15.8502 10.6525C18.2352 10.6525 20.1686 8.71907 20.1686 6.33406C20.1686 3.94905 18.2352 2.01562 15.8502 2.01562C13.4652 2.01562 11.5317 3.94905 11.5317 6.33406C11.5317 8.71907 13.4652 10.6525 15.8502 10.6525Z" fill="#7B83EB"/>
<path opacity="0.1" d="M15.5409 7.25781H11.6296L11.6491 7.34387L11.6509 7.35127L11.6713 7.43085C11.9555 8.50857 12.645 9.43484 13.5959 10.0162C14.5468 10.5976 15.6856 10.7892 16.7744 10.551V8.49125C16.7734 8.16443 16.6431 7.85126 16.412 7.62016C16.1809 7.38905 15.8678 7.25879 15.5409 7.25781Z" fill="black"/>
<path opacity="0.2" d="M14.6148 8.18359H11.9468C12.2969 8.92186 12.8494 9.54562 13.54 9.98237C14.2306 10.4191 15.0309 10.6509 15.848 10.6509V9.41678C15.847 9.09002 15.7168 8.77692 15.4857 8.54586C15.2547 8.31481 14.9416 8.18457 14.6148 8.18359Z" fill="black"/>
<path d="M25.565 10.9596C27.3536 10.9596 28.8036 9.50964 28.8036 7.72102C28.8036 5.93239 27.3536 4.48242 25.565 4.48242C23.7764 4.48242 22.3264 5.93239 22.3264 7.72102C22.3264 9.50964 23.7764 10.9596 25.565 10.9596Z" fill="#5059C9"/>
<path d="M28.3404 11.8848H21.0671C20.91 11.8848 20.7594 11.9472 20.6484 12.0582C20.5373 12.1693 20.4749 12.3199 20.4749 12.4769V19.9807C20.4549 21.0667 20.8086 22.1266 21.4768 22.9829C22.145 23.8393 23.0871 24.44 24.1454 24.6846C24.8194 24.826 25.5165 24.8154 26.1859 24.6534C26.8553 24.4914 27.4801 24.1822 28.0149 23.7483C28.5497 23.3143 28.981 22.7666 29.2774 22.1449C29.5738 21.5232 29.7278 20.8433 29.7283 20.1546V13.2726C29.7283 12.9045 29.5821 12.5515 29.3218 12.2913C29.0615 12.031 28.7085 11.8848 28.3404 11.8848Z" fill="#5059C9"/>
<path d="M23.2516 13.2727V22.0626C23.2525 23.6915 22.7157 25.2753 21.7245 26.5679C20.7333 27.8606 19.3432 28.79 17.7698 29.2118C16.1964 29.6336 14.5277 29.5243 13.0228 28.9008C11.5179 28.2774 10.2609 27.1746 9.44679 25.7636C9.26874 25.4677 9.11406 25.1583 8.98416 24.8384C8.86305 24.5367 8.76107 24.2276 8.67883 23.9131C8.52629 23.3081 8.4486 22.6866 8.44751 22.0626V13.2727C8.44727 13.0903 8.483 12.9097 8.55266 12.7412C8.62232 12.5727 8.72454 12.4197 8.85347 12.2907C8.9824 12.1618 9.13549 12.0596 9.30399 11.9899C9.47248 11.9203 9.65307 11.8845 9.8354 11.8848H21.8637C22.0461 11.8845 22.2266 11.9203 22.3951 11.9899C22.5636 12.0596 22.7167 12.1618 22.8457 12.2907C22.9746 12.4197 23.0768 12.5727 23.1465 12.7412C23.2161 12.9097 23.2519 13.0903 23.2516 13.2727Z" fill="#7B83EB"/>
<path opacity="0.2" d="M14.6148 8.18359H11.9468C12.2969 8.92186 12.8494 9.54562 13.54 9.98237C14.2306 10.4191 15.0309 10.6509 15.848 10.6509V9.41678C15.847 9.09002 15.7168 8.77692 15.4857 8.54586C15.2547 8.31481 14.9416 8.18457 14.6148 8.18359Z" fill="black"/>
<path opacity="0.1" d="M16.7747 11.8848V23.6076C16.7747 23.8865 16.6793 24.1571 16.5042 24.3742C16.3291 24.5913 16.085 24.742 15.8125 24.8012C15.7254 24.8271 15.6349 24.8396 15.5441 24.8382H8.98415C8.86305 24.5365 8.76107 24.2275 8.67882 23.913C8.52628 23.3079 8.4486 22.6864 8.44751 22.0625V13.2726C8.44727 13.0903 8.483 12.9097 8.55266 12.7412C8.62232 12.5727 8.72454 12.4196 8.85347 12.2907C8.98239 12.1618 9.13548 12.0596 9.30398 11.9899C9.47247 11.9203 9.65305 11.8845 9.83538 11.8848H16.7747Z" fill="black"/>
<path opacity="0.2" d="M15.8495 11.8848V24.5329C15.8508 24.6237 15.8383 24.7141 15.8125 24.8012C15.7533 25.0738 15.6026 25.3179 15.3855 25.4929C15.1683 25.668 14.8978 25.7634 14.6189 25.7634H9.44678C9.26873 25.4675 9.11405 25.1582 8.98415 24.8382C8.86305 24.5365 8.76107 24.2275 8.67882 23.9129C8.52628 23.3079 8.4486 22.6864 8.44751 22.0625V13.2726C8.44727 13.0903 8.483 12.9097 8.55266 12.7412C8.62232 12.5727 8.72454 12.4196 8.85347 12.2907C8.98239 12.1618 9.13548 12.0596 9.30398 11.9899C9.47247 11.9203 9.65305 11.8845 9.83538 11.8848H15.8495Z" fill="black"/>
<path opacity="0.2" d="M15.8495 11.8848V22.6824C15.848 23.0083 15.7179 23.3204 15.4874 23.5509C15.257 23.7814 14.9448 23.9115 14.6189 23.9129H8.67882C8.52628 23.3079 8.4486 22.6864 8.44751 22.0625V13.2726C8.44727 13.0903 8.483 12.9097 8.55266 12.7412C8.62232 12.5727 8.72454 12.4196 8.85347 12.2907C8.98239 12.1618 9.13548 12.0596 9.30398 11.9899C9.47247 11.9203 9.65305 11.8845 9.83538 11.8848H15.8495Z" fill="black"/>
<path opacity="0.2" d="M9.83538 11.8848C9.65305 11.8845 9.47247 11.9203 9.30398 11.9899C9.13548 12.0596 8.98239 12.1618 8.85347 12.2907C8.72454 12.4196 8.62232 12.5727 8.55266 12.7412C8.483 12.9097 8.44727 13.0903 8.44751 13.2726V22.0625C8.4486 22.6864 8.52628 23.3079 8.67882 23.9129H13.6937C14.0196 23.9115 14.3317 23.7814 14.5622 23.5509C14.7926 23.3204 14.9228 23.0083 14.9242 22.6824V11.8848H9.83538Z" fill="black"/>
<path d="M1.353 8.18359H13.6904C14.0175 8.18359 14.3312 8.31354 14.5625 8.54484C14.7938 8.77614 14.9237 9.08985 14.9237 9.41696V21.7543C14.9237 22.0814 14.7938 22.3952 14.5625 22.6265C14.3312 22.8578 14.0175 22.9877 13.6904 22.9877H1.353C1.02589 22.9877 0.712175 22.8578 0.480874 22.6265C0.249573 22.3952 0.119629 22.0814 0.119629 21.7543L0.119629 9.41696C0.119629 9.08985 0.249573 8.77614 0.480874 8.54484C0.712175 8.31354 1.02589 8.18359 1.353 8.18359Z" fill="#4B53BC"/>
<path d="M11.2048 12.7877H8.43816V20.2087H6.6227V12.7877H3.83936V10.9648H11.2048V12.7877Z" fill="white"/>
</svg>
