<svg width="30" height="31" viewBox="0 0 30 31" fill="none" xmlns="http://www.w3.org/2000/svg">
<g clip-path="url(#clip0_5833_51769)">
<path d="M17.7368 16.4373L24.319 12.833C23.8682 11.073 22.9158 9.48189 21.5775 8.25308C20.2393 7.02427 18.5728 6.21073 16.7808 5.91137C14.9888 5.612 13.1484 5.83971 11.4834 6.56681C9.81841 7.29391 8.40051 8.48907 7.4021 10.007L17.7368 16.4373Z" fill="#0364B8"/>
<path d="M11.4371 11.1238C9.96909 10.2262 8.23727 9.86018 6.53159 10.087C4.82592 10.3138 3.24995 11.1198 2.06754 12.3698C0.885135 13.6199 0.168075 15.2382 0.0364188 16.9539C-0.0952374 18.6695 0.366503 20.3783 1.34433 21.7942L12.0222 22.0792L17.7362 14.8969L11.4371 11.1238Z" fill="#0078D4"/>
<path d="M24.3183 12.835C23.3505 12.7675 22.3807 12.9334 21.4904 13.3188L17.7361 14.8978L21.0178 20.4149L29.271 21.8064C29.7546 20.9086 30.0053 19.9038 29.9999 18.884C29.9946 17.8642 29.7335 16.8621 29.2405 15.9694C28.7475 15.0767 28.0384 14.322 27.1781 13.7744C26.3178 13.2268 25.3339 12.9038 24.3165 12.835H24.3183Z" fill="#1490DF"/>
<path d="M17.7364 14.8965L1.34644 21.7938C2.03632 22.786 2.95606 23.5966 4.02715 24.1563C5.09824 24.716 6.28886 25.0082 7.49737 25.008H23.9061C25.0062 25.008 26.0858 24.7103 27.0304 24.1464C27.975 23.5825 28.7493 22.7734 29.2713 21.805L17.7364 14.8965Z" fill="#28A8EA"/>
</g>
<defs>
<clipPath id="clip0_5833_51769">
<rect width="30" height="30" fill="white" transform="translate(0 0.585938)"/>
</clipPath>
</defs>
</svg>
