<svg width="76" height="76" viewBox="0 0 76 76" fill="none" xmlns="http://www.w3.org/2000/svg">
<path d="M18.8599 4.97207C19.2061 4.78232 19.6272 4.78869 19.9683 4.9877L23.6108 7.11368C23.7846 7.215 23.9829 7.26805 24.1841 7.267L27.2036 7.25039C27.8269 7.24734 28.3343 7.75204 28.3345 8.37539V10.1977L33.5005 10.1039C34.1215 10.1042 34.6254 10.6079 34.6255 11.2289L34.3472 46.016L30.4399 48.7045V46.7397C30.4399 46.5327 30.2718 46.3649 30.0649 46.3647H24.6851C24.478 46.3647 24.3101 46.5325 24.3101 46.7397V50.4984L22.6597 50.1352V46.7397C22.6597 46.5326 22.4917 46.3647 22.2847 46.3647H16.9048C16.6978 46.3648 16.5298 46.5326 16.5298 46.7397V57.1889C16.5298 57.3959 16.6978 57.5638 16.9048 57.5639H18.3491L17.9116 59.3109H5.71143C5.09025 59.3109 4.58664 58.8071 4.58643 58.1859L4.21143 11.6039C4.21156 10.9827 4.7152 10.4789 5.33643 10.4789L9.75244 10.3852V8.4584C9.75244 7.83931 10.2525 7.33657 10.8716 7.3334L14.3003 7.3168C14.4874 7.31587 14.6714 7.26804 14.8354 7.17813L18.8599 4.97207ZM54.1597 7.10391C54.2731 7.10401 54.3858 7.13044 54.4878 7.18008L65.1235 12.3539H68.4136C69.0345 12.3542 69.5383 12.858 69.5386 13.4789V58.1859C69.5384 58.8069 69.0345 59.3107 68.4136 59.3109H56.1929L55.4634 57.5648H57.5796C57.7863 57.5644 57.9546 57.3967 57.9546 57.1898V46.9525C57.9543 46.746 57.7861 46.578 57.5796 46.5775H51.3618C51.155 46.5776 50.9871 46.7457 50.9868 46.9525V49.9672L49.1118 50.6449V46.9525C49.1116 46.746 48.9433 46.578 48.7368 46.5775H42.5181C42.3114 46.5779 42.1443 46.7459 42.144 46.9525V48.4555L39.6372 47.4037H39.4097L39.1255 13.4789C39.1258 12.8578 39.6293 12.3539 40.2505 12.3539H43.5415V7.85391C43.5418 7.43992 43.8775 7.10391 44.2915 7.10391H54.1597ZM60.2046 46.5775C59.9977 46.5776 59.8299 46.7457 59.8296 46.9525V57.1898C59.8296 57.3969 59.9976 57.5647 60.2046 57.5648H66.4224C66.6291 57.5644 66.7974 57.3967 66.7974 57.1898V46.9525C66.7971 46.746 66.6289 46.578 66.4224 46.5775H60.2046ZM9.12549 46.3647C8.91838 46.3647 8.75049 46.5325 8.75049 46.7397V57.1889C8.75049 57.396 8.91838 57.5639 9.12549 57.5639H14.5054C14.7124 57.5638 14.8804 57.3959 14.8804 57.1889V46.7397C14.8804 46.5326 14.7124 46.3647 14.5054 46.3647H9.12549ZM9.12549 38.1576C8.91846 38.1576 8.75062 38.3256 8.75049 38.5326V44.0668C8.75049 44.2739 8.91838 44.4418 9.12549 44.4418H14.5054C14.7124 44.4417 14.8804 44.2739 14.8804 44.0668V38.5326C14.8802 38.3257 14.7123 38.1577 14.5054 38.1576H9.12549ZM16.9048 38.1576C16.6978 38.1577 16.5299 38.3257 16.5298 38.5326V44.0668C16.5298 44.2738 16.6978 44.4417 16.9048 44.4418H22.2847C22.4917 44.4417 22.6597 44.2739 22.6597 44.0668V38.5326C22.6595 38.3257 22.4916 38.1577 22.2847 38.1576H16.9048ZM24.6851 38.1576C24.478 38.1576 24.3102 38.3256 24.3101 38.5326V44.0668C24.3101 44.2737 24.4772 44.4415 24.6841 44.4418H30.0649C30.2718 44.4416 30.4399 44.2738 30.4399 44.0668V38.5326C30.4398 38.3258 30.2718 38.1579 30.0649 38.1576H24.6851ZM42.3804 38.7836C42.1735 38.7837 42.0056 38.9518 42.0054 39.1586V43.1059C42.0054 43.3129 42.1733 43.4808 42.3804 43.4809H48.5981C48.805 43.4806 48.9731 43.3128 48.9731 43.1059V39.1586C48.9729 38.9519 48.8049 38.7839 48.5981 38.7836H42.3804ZM51.2231 38.7836C51.0163 38.7837 50.8484 38.9518 50.8481 39.1586V43.1059C50.8481 43.3129 51.0161 43.4808 51.2231 43.4809H57.4409C57.6478 43.4806 57.8159 43.3128 57.8159 43.1059V39.1586C57.8157 38.9519 57.6476 38.7839 57.4409 38.7836H51.2231ZM60.0659 38.7836C59.8591 38.7837 59.6912 38.9518 59.6909 39.1586V43.1059C59.6909 43.3129 59.8589 43.4808 60.0659 43.4809H66.2837C66.4906 43.4806 66.6587 43.3128 66.6587 43.1059V39.1586C66.6584 38.9519 66.4904 38.7839 66.2837 38.7836H60.0659ZM9.12549 29.9662C8.91846 29.9662 8.75062 30.1342 8.75049 30.3412V35.8754C8.75049 36.0825 8.91838 36.2504 9.12549 36.2504H14.5054C14.7124 36.2503 14.8804 36.0825 14.8804 35.8754V30.3412C14.8802 30.1343 14.7123 29.9663 14.5054 29.9662H9.12549ZM16.9048 29.9662C16.6978 29.9663 16.5299 30.1343 16.5298 30.3412V35.8754C16.5298 36.0824 16.6978 36.2503 16.9048 36.2504H22.2847C22.4917 36.2503 22.6597 36.0825 22.6597 35.8754V30.3412C22.6595 30.1343 22.4916 29.9663 22.2847 29.9662H16.9048ZM24.6851 29.9662C24.478 29.9662 24.3102 30.1342 24.3101 30.3412V35.8754C24.3101 36.0823 24.4772 36.2501 24.6841 36.2504H30.0649C30.2718 36.2502 30.4399 36.0824 30.4399 35.8754V30.3412C30.4398 30.1344 30.2718 29.9664 30.0649 29.9662H24.6851ZM42.3804 31.0189C42.1735 31.019 42.0056 31.1871 42.0054 31.3939V35.3412C42.0055 35.5482 42.1734 35.7161 42.3804 35.7162H48.5981C48.8049 35.7159 48.973 35.548 48.9731 35.3412V31.393C48.9726 31.1865 48.8047 31.0192 48.5981 31.0189H42.3804ZM51.2231 31.0189C51.0163 31.019 50.8484 31.1871 50.8481 31.3939V35.3412C50.8483 35.5482 51.0162 35.7161 51.2231 35.7162H57.4409C57.6477 35.716 57.8158 35.548 57.8159 35.3412V31.393C57.8154 31.1865 57.6475 31.0192 57.4409 31.0189H51.2231ZM60.0659 31.0189C59.8591 31.019 59.6912 31.1871 59.6909 31.3939V35.3412C59.691 35.5482 59.859 35.7161 60.0659 35.7162H66.2837C66.4905 35.716 66.6586 35.548 66.6587 35.3412V31.393C66.6582 31.1865 66.4902 31.0192 66.2837 31.0189H60.0659ZM9.12549 21.7758C8.91838 21.7758 8.75049 21.9437 8.75049 22.1508V27.685C8.75056 27.892 8.91843 28.06 9.12549 28.06H14.5054C14.7124 28.0599 14.8803 27.892 14.8804 27.685V22.1508C14.8804 21.9437 14.7124 21.7759 14.5054 21.7758H9.12549ZM16.9048 21.7758C16.6978 21.7759 16.5298 21.9437 16.5298 22.1508V27.685C16.5299 27.8919 16.6978 28.0599 16.9048 28.06H22.2847C22.4917 28.0599 22.6596 27.892 22.6597 27.685V22.1508C22.6597 21.9437 22.4917 21.7759 22.2847 21.7758H16.9048ZM24.6851 21.7758C24.478 21.7758 24.3101 21.9437 24.3101 22.1508V27.685C24.3101 27.8918 24.4772 28.0597 24.6841 28.06H30.0649C30.2718 28.0597 30.4399 27.8919 30.4399 27.685V22.1508C30.4399 21.9438 30.2718 21.776 30.0649 21.7758H24.6851ZM42.3804 23.2543C42.1735 23.2544 42.0056 23.4225 42.0054 23.6293V27.5766C42.0054 27.7836 42.1733 27.9515 42.3804 27.9516H48.5981C48.805 27.9513 48.9731 27.7835 48.9731 27.5766V23.6293C48.9729 23.4226 48.8049 23.2546 48.5981 23.2543H42.3804ZM51.2231 23.2543C51.0163 23.2544 50.8484 23.4225 50.8481 23.6293V27.5766C50.8481 27.7836 51.0161 27.9515 51.2231 27.9516H57.4409C57.6478 27.9513 57.8159 27.7835 57.8159 27.5766V23.6293C57.8157 23.4226 57.6476 23.2546 57.4409 23.2543H51.2231ZM60.0659 23.2543C59.8591 23.2544 59.6912 23.4225 59.6909 23.6293V27.5766C59.6909 27.7836 59.8589 27.9515 60.0659 27.9516H66.2837C66.4906 27.9513 66.6587 27.7835 66.6587 27.5766V23.6293C66.6584 23.4226 66.4904 23.2546 66.2837 23.2543H60.0659ZM42.3804 15.4887C42.1736 15.4888 42.0058 15.657 42.0054 15.8637V19.8119C42.0056 20.0187 42.1735 20.1868 42.3804 20.1869H48.5981C48.8049 20.1866 48.9729 20.0186 48.9731 19.8119V15.8637C48.9727 15.6571 48.8048 15.489 48.5981 15.4887H42.3804ZM51.2231 15.4887C51.0164 15.4888 50.8485 15.657 50.8481 15.8637V19.8119C50.8484 20.0187 51.0163 20.1868 51.2231 20.1869H57.4409C57.6476 20.1867 57.8157 20.0186 57.8159 19.8119V15.8637C57.8155 15.6571 57.6476 15.4889 57.4409 15.4887H51.2231ZM60.0659 15.4887C59.8591 15.4888 59.6913 15.657 59.6909 15.8637V19.8119C59.6912 20.0187 59.8591 20.1868 60.0659 20.1869H66.2837C66.4904 20.1867 66.6584 20.0186 66.6587 19.8119V15.8637C66.6583 15.6571 66.4903 15.4889 66.2837 15.4887H60.0659ZM9.12549 13.5844C8.91838 13.5844 8.75049 13.7523 8.75049 13.9594V19.4936C8.75056 19.7006 8.91843 19.8686 9.12549 19.8686H14.5054C14.7124 19.8685 14.8803 19.7006 14.8804 19.4936V13.9594C14.8804 13.7523 14.7124 13.5844 14.5054 13.5844H9.12549ZM16.9048 13.5844C16.6978 13.5845 16.5298 13.7523 16.5298 13.9594V19.4936C16.5299 19.7005 16.6978 19.8685 16.9048 19.8686H22.2847C22.4917 19.8685 22.6596 19.7006 22.6597 19.4936V13.9594C22.6597 13.7523 22.4917 13.5844 22.2847 13.5844H16.9048ZM24.6851 13.5844C24.478 13.5844 24.3101 13.7523 24.3101 13.9594V19.4936C24.3101 19.7004 24.4772 19.8683 24.6841 19.8686H30.0649C30.2718 19.8683 30.4399 19.7005 30.4399 19.4936V13.9594C30.4399 13.7524 30.2718 13.5846 30.0649 13.5844H24.6851Z" fill="#CCFF42"/>
<g clip-path="url(#clip0_6292_16018)">
<path d="M12.365 61.6557C11.8876 60.9091 12.9216 57.6609 13.3369 55.8793C14.2188 52.0955 15.1193 48.1145 15.3926 47.5954C15.7342 46.9466 20.8795 47.9858 21.6811 48.4806C22.4827 48.9754 19.6134 61.6671 18.7697 63.0254C17.811 63.7257 13.3174 62.2101 12.365 61.6557Z" fill="black"/>
<path d="M57.0706 63.1989C56.2191 62.768 55.1604 59.2537 54.4505 57.4062C52.9428 53.4825 51.3333 49.3687 51.2559 48.7501C51.1593 47.9769 56.1559 46.2153 57.1329 46.2451C58.11 46.275 63.2427 59.3893 63.3356 61.0756C62.9381 62.2211 58.2116 63.2038 57.0706 63.1989Z" fill="black"/>
<path d="M50.4861 63.2912L59.9819 61.1855" stroke="black" stroke-linecap="round" stroke-linejoin="round"/>
<path d="M40.6547 64.7328C41.1611 65.4544 45.1801 68.6622 43.571 70.3174C41.9619 71.9725 39.5802 70.0177 37.5462 67.6817" stroke="black" stroke-linecap="round" stroke-linejoin="round"/>
<path d="M44.37 61.9827C44.9402 62.6197 48.4736 66.1102 46.8645 67.7653C46.0152 68.639 44.7812 69.0802 43.2187 67.5739" stroke="black" stroke-linecap="round" stroke-linejoin="round"/>
<path d="M35.7153 70.1075C37.1096 71.3742 38.2963 72.0287 39.3663 71.5629C39.8199 71.3654 40.106 70.668 39.4082 69.6074" stroke="black" stroke-linecap="round" stroke-linejoin="round"/>
<path d="M33.0775 66.9756C33.9106 66.0444 35.841 66.3062 35.7095 69.9146C35.6628 71.1951 35.271 71.8159 33.8242 71.6995C32.3773 71.5831 31.4127 70.9234 31.5004 69.4102" stroke="black" stroke-linecap="round" stroke-linejoin="round"/>
<path d="M23.1109 63.291C22.7224 64.7252 23.8549 66.4625 25.6916 64.3438" stroke="black" stroke-linecap="round" stroke-linejoin="round"/>
<path d="M28.8285 63.6414C29.8653 64.4518 29.3216 65.604 28.265 66.8347C26.2925 68.764 24.1088 66.0697 25.729 64.34C26.467 63.5521 27.8071 62.8431 28.8285 63.6414Z" stroke="black" stroke-linecap="round" stroke-linejoin="round"/>
<path d="M33.2929 66.2567C32.8254 67.3056 32.9529 67.0434 31.8053 69.1037C31.3246 69.9653 29.7652 69.6281 28.7452 68.804C27.7251 67.9799 28.8302 66.7437 29.4252 65.2079C30.0202 63.672 31.2103 62.9978 32.5279 63.4098C33.8454 63.8219 33.7604 65.2079 33.2929 66.2567Z" stroke="black" stroke-linecap="round" stroke-linejoin="round"/>
<path d="M56.817 48.5644C53.9486 49.1539 49.5121 51.119 47.791 50.988C46.07 50.857 41.4423 47.0258 37.4265 47.5491C35.6672 47.7783 33.2959 48.2696 32.9135 48.7937C32.531 49.3177 29.8921 52.4946 30.5423 53.3134C31.0602 53.9657 32.8843 54.1082 34.4816 52.9859C35.9731 51.9378 36.7763 50.333 36.8528 50.1692" stroke="black" stroke-linecap="round" stroke-linejoin="round"/>
<path d="M35.7153 52.2363C36.7214 52.2363 39.6492 52.7627 39.9357 52.7627" stroke="black" stroke-linecap="round" stroke-linejoin="round"/>
<path d="M39.9353 52.7617C43.7564 55.5176 50.1846 60.5064 50.457 63.4282C50.7974 67.0804 48.0735 66.6791 47.1277 65.9968" stroke="black" stroke-linecap="round" stroke-linejoin="round"/>
<path d="M16.5674 61.3105C21.4727 62.1204 23.2173 63.0124 25.5498 64.2918" stroke="black" stroke-linecap="round" stroke-linejoin="round"/>
<path d="M18.8335 48.871C20.9571 49.6004 25.5758 50.9659 27.0623 50.5929C28.9204 50.1265 33.4431 45.5598 35.1874 45.9185C36.5829 46.2055 37.5091 47.438 37.8251 47.4977" stroke="black" stroke-linecap="round" stroke-linejoin="round"/>
</g>
<defs>
<clipPath id="clip0_6292_16018">
<rect width="52.8344" height="31.3704" fill="white" transform="translate(11.2078 44.0391)"/>
</clipPath>
</defs>
</svg>
