<svg width="20" height="21" viewBox="0 0 20 21" fill="none" xmlns="http://www.w3.org/2000/svg">
<path fill-rule="evenodd" clip-rule="evenodd" d="M13.6348 5.73123C13.3318 5.42292 12.8406 5.42292 12.5376 5.73123C12.2346 6.03954 12.2346 6.53941 12.5376 6.84772L15.351 9.71053H3.77586C3.34737 9.71053 3 10.064 3 10.5C3 10.936 3.34737 11.2895 3.77586 11.2895H15.351L12.5376 14.1523C12.2346 14.4606 12.2346 14.9605 12.5376 15.2688C12.8406 15.5771 13.3318 15.5771 13.6348 15.2688L17.7728 11.0582C17.9243 10.9041 18 10.702 18 10.5C18 10.393 17.9791 10.2909 17.9411 10.1978C17.9033 10.1047 17.8471 10.0174 17.7728 9.94176L13.6348 5.73123Z" fill="#7868FF"/>
</svg>
