<svg width="173" height="165" viewBox="0 0 173 165" fill="none" xmlns="http://www.w3.org/2000/svg">
<path d="M64.7981 157.629C58.684 158.617 52.8631 155.121 50.6925 149.582C45.6355 149.32 41.1646 146.095 39.3218 141.381C34.2648 141.118 29.7939 137.894 27.951 133.18C22.0009 132.875 16.8458 128.448 15.8577 122.337L6.80788 66.3663C5.81976 60.2551 9.3182 54.4364 14.8679 52.2647C15.1313 47.2099 18.3581 42.7407 23.0747 40.8979C23.338 35.8432 26.5648 31.3739 31.2814 29.5311C31.5871 23.5837 36.0184 18.4379 42.1325 17.4493L107.919 6.81235C114.033 5.82375 119.854 9.31967 122.024 14.8589C127.081 15.1214 131.553 18.3536 133.395 23.0602C138.452 23.3227 142.923 26.5473 144.766 31.2615C150.716 31.566 155.871 35.9933 156.859 42.1045L165.909 98.0748C166.897 104.186 163.399 110.005 157.849 112.176C157.586 117.231 154.359 121.7 149.642 123.543C149.379 128.598 146.153 133.075 141.435 134.91C141.13 140.857 136.698 146.003 130.584 146.992L64.7981 157.629Z" fill="#CCFF42"/>
<path d="M143.935 41.7207L138.446 42.6082C137.256 42.8007 136.137 41.9935 135.945 40.8032L135.057 35.3144C134.865 34.1241 133.746 33.317 132.556 33.5094L127.067 34.3969C125.877 34.5894 124.758 33.7822 124.566 32.592L123.678 27.1031C123.486 25.9128 122.367 25.1057 121.177 25.2982L115.688 26.1856C114.498 26.3781 113.379 25.571 113.187 24.3807L112.299 18.8918C112.107 17.7016 110.989 16.8944 109.798 17.0869L43.9698 27.7307C42.7796 27.9231 41.9724 29.0416 42.1649 30.2319L43.0524 35.7207C43.2448 36.911 42.4377 38.0295 41.2474 38.222L35.7586 39.1095C34.5683 39.3019 33.7611 40.4204 33.9536 41.6107L34.8411 47.0995C35.0335 48.2898 34.2264 49.4083 33.0361 49.6008L27.5473 50.4883C26.357 50.6807 25.5499 51.7992 25.7423 52.9895L26.6298 58.4783C26.8223 59.6686 26.0151 60.7871 24.8249 60.9796L19.336 61.8671C18.1457 62.0595 17.3386 63.178 17.531 64.3683L26.5911 120.402C26.7835 121.592 27.902 122.399 29.0923 122.207L34.5812 121.319C35.7714 121.127 36.8899 121.934 37.0824 123.124L37.9699 128.613C38.1623 129.803 39.2808 130.61 40.4711 130.418L45.96 129.53C47.1502 129.338 48.2687 130.145 48.4612 131.335L49.3487 136.824C49.5411 138.014 50.6596 138.822 51.8499 138.629L57.3388 137.742C58.529 137.549 59.6475 138.356 59.84 139.547L60.7275 145.035C60.9199 146.226 62.0384 147.033 63.2287 146.84L129.057 136.197C130.247 136.004 131.054 134.886 130.862 133.695L129.975 128.207C129.782 127.016 130.589 125.898 131.78 125.705L137.268 124.818C138.459 124.625 139.266 123.507 139.073 122.317L138.186 116.828C137.993 115.637 138.801 114.519 139.991 114.327L145.48 113.439C146.67 113.247 147.477 112.128 147.285 110.938L146.397 105.449C146.205 104.259 147.012 103.14 148.202 102.948L153.691 102.06C154.881 101.868 155.688 100.749 155.496 99.559L146.436 43.5257C146.243 42.3354 145.125 41.5283 143.935 41.7207ZM133.862 113.707L128.373 114.595C127.182 114.787 126.375 115.906 126.568 117.096L127.455 122.585C127.648 123.775 126.841 124.894 125.65 125.086L62.9605 135.222C61.7703 135.415 60.6517 134.608 60.4593 133.417L59.5718 127.929C59.3793 126.738 58.2608 125.931 57.0706 126.124L51.5817 127.011C50.3915 127.204 49.273 126.396 49.0805 125.206L48.193 119.717C48.0006 118.527 46.8821 117.72 45.6918 117.912L40.2029 118.8C39.0126 118.992 37.8941 118.185 37.7017 116.995L29.1492 64.1001C28.9567 62.9098 29.7638 61.7913 30.9541 61.5989L36.443 60.7114C37.6332 60.5189 38.4404 59.4004 38.2479 58.2102L37.3604 52.7213C37.168 51.531 37.9751 50.4125 39.1654 50.2201L44.6542 49.3326C45.8445 49.1401 46.6517 48.0216 46.4592 46.8314L45.5717 41.3425C45.3793 40.1523 46.1864 39.0337 47.3767 38.8413L110.066 28.705C111.257 28.5125 112.375 29.3197 112.568 30.5099L113.455 35.9988C113.648 37.1891 114.766 37.9962 115.956 37.8038L121.445 36.9163C122.635 36.7238 123.754 37.531 123.946 38.7212L124.834 44.2101C125.026 45.4003 126.145 46.2075 127.335 46.015L132.824 45.1275C134.014 44.9351 135.133 45.7422 135.325 46.9325L143.878 99.8272C144.07 101.017 143.263 102.136 142.073 102.328L136.584 103.216C135.394 103.408 134.587 104.527 134.779 105.717L135.666 111.206C135.859 112.396 135.052 113.515 133.862 113.707Z" fill="#1F1B1B"/>
<path d="M105.942 55.4013L98.8836 56.5425C97.6945 56.7348 96.8863 57.8546 97.0786 59.0437L98.2198 66.1019C98.4121 67.291 99.532 68.0991 100.721 67.9069L107.779 66.7656C108.968 66.5734 109.776 65.4535 109.584 64.2644L108.443 57.2062C108.251 56.0171 107.131 55.209 105.942 55.4013Z" fill="#1F1B1B"/>
<path d="M66.7621 61.7372L59.7039 62.8784C58.5147 63.0707 57.7066 64.1905 57.8989 65.3796L59.0402 72.4378C59.2324 73.627 60.3523 74.4351 61.5414 74.2428L68.5996 73.1016C69.7887 72.9093 70.5968 71.7894 70.4045 70.6003L69.2633 63.5421C69.071 62.353 67.9512 61.5449 66.7621 61.7372Z" fill="#1F1B1B"/>
<path d="M109.125 85.041L103.636 85.9285C102.446 86.121 101.638 87.2395 101.831 88.4297L102.718 93.9186C102.911 95.1089 102.104 96.2274 100.913 96.4198L77.4038 100.221C76.2136 100.414 75.0951 99.6064 74.9026 98.4161L74.0151 92.9272C73.8227 91.737 72.7041 90.9298 71.5139 91.1223L66.025 92.0098C64.8348 92.2022 63.7163 91.3951 63.5238 90.2048L62.6363 84.716C62.4439 83.5257 61.3254 82.7186 60.1351 82.911L53.0769 84.0523C51.8867 84.2447 51.0795 85.3632 51.272 86.5535L52.4132 93.6117C52.6057 94.8019 53.7242 95.6091 54.9144 95.4166L60.4033 94.5291C61.5935 94.3367 62.712 95.1438 62.9045 96.3341L63.792 101.823C63.9844 103.013 65.1029 103.82 66.2932 103.628L71.7821 102.74C72.9723 102.548 74.0908 103.355 74.2833 104.545L75.1708 110.034C75.3632 111.224 76.4817 112.032 77.672 111.839L104.32 107.53C105.511 107.338 106.318 106.219 106.125 105.029L105.238 99.5404C105.045 98.3501 105.852 97.2316 107.043 97.0391L112.532 96.1516C113.722 95.9592 114.529 94.8407 114.337 93.6504L113.449 88.1615C113.257 86.9713 114.064 85.8528 115.254 85.6603L120.743 84.7728C121.933 84.5804 122.74 83.4619 122.548 82.2716L121.407 75.2134C121.214 74.0232 120.096 73.216 118.905 73.4085L111.847 74.5497C110.657 74.7422 109.85 75.8607 110.042 77.0509L110.93 82.5398C111.122 83.7301 110.315 84.8486 109.125 85.041Z" fill="#1F1B1B"/>
</svg>
