<svg width="145" height="131" viewBox="0 0 145 131" fill="none" xmlns="http://www.w3.org/2000/svg">
<path d="M59.8729 120.653C53.2338 119.669 48.4667 113.928 48.608 107.462C42.6153 106.001 38.4324 100.572 38.56 94.5126C32.5672 93.0523 28.3843 87.6226 28.5119 81.5637C22.5191 80.1033 18.3362 74.6737 18.4639 68.6148C11.9384 67.0213 7.56214 60.7434 8.55342 54.0547L12.9951 24.084C13.9864 17.3953 19.9954 12.6564 26.7025 13.0241C28.4428 6.79435 34.6623 2.68214 41.3091 3.66721L60.8841 6.56827C67.5232 7.55221 72.2903 13.2927 72.1489 19.7594C74.5517 20.3475 76.6654 21.5732 78.3278 23.2191C80.3961 22.1261 82.7745 21.5661 85.2445 21.7002C86.9848 15.4704 93.2043 11.3582 99.8511 12.3433L119.426 15.2443C126.065 16.2283 130.832 21.9687 130.691 28.4354C137.216 30.0289 141.593 36.3068 140.601 42.9955L136.16 72.9662C135.168 79.655 129.159 84.3938 122.452 84.0261C120.825 89.8628 115.247 93.8458 109.08 93.5042C107.453 99.3408 101.875 103.324 95.7087 102.982C94.0812 108.819 88.5033 112.802 82.3369 112.46C80.5967 118.69 74.3695 122.801 67.7304 121.817L59.8577 120.65L59.8729 120.653Z" fill="#FF5B22"/>
<path d="M127.654 38.9728L120.725 37.9459C119.421 37.7527 118.51 36.5802 118.694 35.3395L119.677 28.7073C119.862 27.459 118.95 26.2941 117.646 26.1009L98.1553 23.2123C96.8514 23.0191 95.6397 23.8769 95.4558 25.1177L94.4729 31.7499C94.2879 32.9982 93.0772 33.8485 91.7733 33.6553L84.8444 32.6284C83.5405 32.4351 82.3287 33.293 82.1449 34.5337L81.1619 41.166C80.977 42.4142 79.7663 43.2646 78.4624 43.0713L72.4357 42.1782C71.1317 41.9849 70.2209 40.8125 70.4048 39.5718L71.3877 32.9395C71.5727 31.6912 70.6607 30.5263 69.3568 30.3331L62.4279 29.3062C61.124 29.113 60.2131 27.9405 60.397 26.6998L61.3799 20.0675C61.5649 18.8193 60.6529 17.6544 59.349 17.4611L39.8586 14.5726C38.5547 14.3794 37.3429 15.2372 37.159 16.478L36.1761 23.1102C35.9911 24.3585 34.7805 25.2088 33.4765 25.0156L26.5477 23.9887C25.2438 23.7954 24.032 24.6533 23.8481 25.894L19.4339 55.679C19.2489 56.9273 20.161 58.0922 21.4649 58.2855L28.3937 59.3123C29.6976 59.5056 30.6085 60.678 30.4246 61.9187L29.4417 68.551C29.2567 69.7992 30.1687 70.9641 31.4726 71.1574L38.4015 72.1843C39.7054 72.3775 40.6163 73.5499 40.4324 74.7907L39.4495 81.4229C39.2645 82.6712 40.1764 83.8361 41.4804 84.0293L48.4093 85.0562C49.7132 85.2495 50.624 86.4219 50.4402 87.6626L49.4572 94.2949C49.2723 95.5431 50.1842 96.7081 51.4881 96.9013L58.4171 97.9282C59.721 98.1214 60.6318 99.2939 60.4479 100.535L59.465 107.167C59.28 108.415 60.192 109.58 61.4959 109.773L69.3346 110.935C70.6385 111.128 71.8503 110.27 72.0341 109.03L73.0171 102.397C73.2021 101.149 74.4127 100.299 75.7166 100.492L82.6455 101.519C83.9494 101.712 85.1612 100.854 85.3451 99.6136L86.328 92.9813C86.513 91.733 87.7236 90.8827 89.0275 91.0759L95.9564 92.1028C97.2603 92.2961 98.4721 91.4382 98.656 90.1975L99.6389 83.5652C99.8239 82.317 101.035 81.4666 102.338 81.6599L109.267 82.6868C110.571 82.88 111.783 82.0221 111.967 80.7814L112.95 74.1492C113.135 72.9009 114.345 72.0506 115.649 72.2438L122.578 73.2707C123.882 73.4639 125.094 72.6061 125.278 71.3654L129.692 41.5803C129.877 40.3321 128.965 39.1672 127.661 38.9739L127.654 38.9728ZM96.8318 79.9754L89.9029 78.9485C88.5989 78.7553 87.3872 79.6131 87.2033 80.8539L86.2204 87.4861C86.0354 88.7344 84.8247 89.5847 83.5208 89.3915L76.5919 88.3646C75.288 88.1713 74.0763 89.0292 73.8924 90.2699L72.9095 96.9022C72.7245 98.1504 71.5138 99.0008 70.2099 98.8075L64.1832 97.9143C62.8793 97.7211 61.9684 96.5487 62.1523 95.3079L63.1352 88.6757C63.3202 87.4274 62.4082 86.2625 61.1043 86.0693L54.1754 85.0424C52.8715 84.8492 51.9606 83.6767 52.1445 82.436L53.1274 75.8037C53.3124 74.5555 52.4004 73.3906 51.0965 73.1973L44.1676 72.1705C42.8637 71.9772 41.9528 70.8048 42.1367 69.5641L43.1196 62.9318C43.3046 61.6835 42.3926 60.5186 41.0887 60.3254L34.1598 59.2985C32.8559 59.1053 31.945 57.9328 32.1289 56.6921L36.2868 28.6366C36.4718 27.3883 37.6825 26.538 38.9864 26.7312L56.6725 29.3524C57.9764 29.5456 58.8872 30.718 58.7034 31.9588L57.7204 38.591C57.5354 39.8393 58.4474 41.0042 59.7513 41.1974L66.6802 42.2243C67.9842 42.4175 68.895 43.59 68.7111 44.8307L67.7282 51.463C67.5432 52.7112 68.4552 53.8761 69.7591 54.0694L77.5978 55.2311C78.9017 55.4243 80.1135 54.5665 80.2973 53.3258L81.2803 46.6935C81.4652 45.4452 82.6759 44.5949 83.9798 44.7881L90.9087 45.815C92.2126 46.0083 93.4244 45.1504 93.6083 43.9097L94.5912 37.2774C94.7762 36.0292 95.9868 35.1788 97.2907 35.3721L114.977 37.9932C116.281 38.1864 117.192 39.3589 117.008 40.5996L112.85 68.6551C112.665 69.9034 111.454 70.7537 110.15 70.5605L103.221 69.5336C101.917 69.3403 100.706 70.1982 100.522 71.4389L99.5389 78.0712C99.3539 79.3194 98.1433 80.1698 96.8394 79.9765L96.8318 79.9754Z" fill="white"/>
</svg>
