<svg width="63" height="18" viewBox="0 0 63 18" fill="none" xmlns="http://www.w3.org/2000/svg">
<g clip-path="url(#clip0_154_5994)">
<rect width="18" height="18" fill="#1F1B1B"/>
<path d="M8.93262 5.60431C10.8213 5.60431 12.3524 7.13556 12.3525 9.02423C12.3525 10.913 10.8214 12.4442 8.93262 12.4442C7.04395 12.444 5.5127 10.9129 5.5127 9.02423C5.51286 7.13567 7.04405 5.60448 8.93262 5.60431Z" stroke="white" stroke-width="2.52"/>
</g>
<path d="M23.02 13V4.6H26.704C28.3 4.6 29.404 5.548 29.404 7.204C29.404 8.848 28.3 9.808 26.704 9.808H24.46V13H23.02ZM24.46 8.524H26.524C27.46 8.524 27.964 8.02 27.964 7.204C27.964 6.376 27.46 5.884 26.524 5.884H24.46V8.524ZM30.513 13V7H31.869V8.248C32.109 7.42 32.769 6.94 33.609 6.94H34.017V8.236H33.501C32.457 8.236 31.893 8.824 31.893 9.916V13H30.513ZM37.4147 13.12C35.6987 13.12 34.4747 11.824 34.4747 10C34.4747 8.176 35.6987 6.88 37.4147 6.88C39.1427 6.88 40.3667 8.176 40.3667 10C40.3667 11.824 39.1427 13.12 37.4147 13.12ZM35.8547 10C35.8547 11.26 36.4787 11.992 37.3667 11.992H37.4627C38.3627 11.992 38.9747 11.26 38.9747 10C38.9747 8.74 38.3627 8.008 37.4627 8.008H37.3667C36.4787 8.008 35.8547 8.74 35.8547 10ZM43.5758 13C42.6398 13 42.1238 12.484 42.1238 11.548V8.14H40.8518V7H42.1238V5.056H43.5038V7H44.8838V8.14H43.5038V11.224C43.5038 11.692 43.6238 11.812 44.0918 11.812H45.0638V13H43.5758ZM48.5985 13.12C47.0985 13.12 45.7545 12.028 45.7545 10C45.7545 8.08 46.9425 6.88 48.5745 6.88C50.2785 6.88 51.2385 8.092 51.2385 9.748C51.2385 9.952 51.2265 10.156 51.2145 10.36H47.0985C47.1705 11.416 47.9145 11.992 48.5985 11.992H48.6945C49.2825 11.992 49.7265 11.656 49.8465 11.152H51.2145C50.9625 12.352 49.9785 13.12 48.5985 13.12ZM47.1345 9.292H49.8825C49.8345 8.428 49.2585 8.008 48.5985 8.008H48.5025C47.8545 8.008 47.2425 8.416 47.1345 9.292ZM55.0301 13.12C53.3021 13.12 52.1501 11.848 52.1501 10C52.1501 8.152 53.3021 6.88 55.0301 6.88C56.5061 6.88 57.5021 7.636 57.6221 9.052H56.2421C56.1461 8.428 55.7381 8.008 55.0781 8.008H54.9821C53.9741 8.008 53.5301 8.932 53.5301 10C53.5301 11.068 53.9741 11.992 54.9821 11.992H55.0781C55.7381 11.992 56.1461 11.572 56.2421 10.948H57.6221C57.5021 12.364 56.5061 13.12 55.0301 13.12ZM60.8643 13C59.9283 13 59.4123 12.484 59.4123 11.548V8.14H58.1403V7H59.4123V5.056H60.7923V7H62.1723V8.14H60.7923V11.224C60.7923 11.692 60.9123 11.812 61.3803 11.812H62.3523V13H60.8643Z" fill="#1F1B1B"/>
<defs>
<clipPath id="clip0_154_5994">
<rect width="18" height="18" rx="2" fill="white"/>
</clipPath>
</defs>
</svg>
