<svg width="66" height="18" viewBox="0 0 66 18" fill="none" xmlns="http://www.w3.org/2000/svg">
<g clip-path="url(#clip0_154_6489)">
<rect width="18" height="18" fill="#1F1B1B"/>
<path d="M11.1594 6.50058C11.1594 7.68343 10.1822 8.66058 8.99936 8.66058C7.8165 8.66058 6.83936 7.68343 6.83936 6.50058C6.83936 5.31772 7.8165 4.34058 8.99936 4.34058C10.1822 4.34058 11.1594 5.29715 11.1594 6.50058Z" fill="white"/>
<path d="M10.4601 12.2514C10.4601 13.0459 9.81456 13.6914 9.02008 13.6914C8.22559 13.6914 7.58008 13.0459 7.58008 12.2514C7.58008 11.4569 8.22559 10.8114 9.02008 10.8114C9.81456 10.8114 10.4601 11.4569 10.4601 12.2514Z" fill="white"/>
</g>
<path d="M23.02 13V4.6H25.324L27.604 11.488L29.824 4.6H32.104V13H30.688V6.04L28.432 13H26.752L24.448 6.076V13H23.02ZM33.8411 13V7H35.2211V13H33.8411ZM33.7811 6.088V4.6H35.2811V6.088H33.7811ZM39.1554 15.64C37.5234 15.64 36.4314 14.848 36.3474 13.72H37.7274C37.8234 14.212 38.3634 14.512 39.1794 14.512H39.2634C40.1514 14.512 40.8114 14.008 40.8114 12.916V12.112C40.4874 12.652 39.8394 13 39.0834 13C37.7034 13 36.4554 11.968 36.4554 9.94C36.4554 7.912 37.6794 6.88 39.0834 6.88C39.8394 6.88 40.5114 7.228 40.8114 7.768V7H42.1914V13.084C42.1914 14.44 41.1474 15.64 39.1554 15.64ZM37.8354 9.94C37.8354 11.236 38.4834 11.872 39.2754 11.872H39.3714C40.1394 11.872 40.8114 11.152 40.8114 9.94C40.8114 8.728 40.1634 8.008 39.3954 8.008H39.2994C38.5074 8.008 37.8354 8.644 37.8354 9.94ZM43.7613 13V7H45.1173V8.248C45.3573 7.42 46.0173 6.94 46.8573 6.94H47.2653V8.236H46.7493C45.7053 8.236 45.1413 8.824 45.1413 9.916V13H43.7613ZM50.503 13.12C49.171 13.12 47.899 12.052 47.899 10C47.899 7.948 49.111 6.88 50.503 6.88C51.487 6.88 52.063 7.336 52.351 7.84V7H53.731V13H52.351V12.16C52.051 12.664 51.487 13.12 50.503 13.12ZM49.279 9.988C49.279 11.224 49.939 11.992 50.743 11.992H50.851C51.643 11.992 52.351 11.284 52.351 10C52.351 8.716 51.643 8.008 50.851 8.008H50.743C49.939 8.008 49.279 8.764 49.279 9.988ZM57.3866 13C56.4506 13 55.9346 12.484 55.9346 11.548V8.14H54.6626V7H55.9346V5.056H57.3146V7H58.6946V8.14H57.3146V11.224C57.3146 11.692 57.4346 11.812 57.9026 11.812H58.8746V13H57.3866ZM62.4093 13.12C60.9093 13.12 59.5653 12.028 59.5653 10C59.5653 8.08 60.7533 6.88 62.3853 6.88C64.0893 6.88 65.0493 8.092 65.0493 9.748C65.0493 9.952 65.0373 10.156 65.0253 10.36H60.9093C60.9813 11.416 61.7253 11.992 62.4093 11.992H62.5053C63.0933 11.992 63.5373 11.656 63.6573 11.152H65.0253C64.7733 12.352 63.7893 13.12 62.4093 13.12ZM60.9453 9.292H63.6933C63.6453 8.428 63.0693 8.008 62.4093 8.008H62.3133C61.6653 8.008 61.0533 8.416 60.9453 9.292Z" fill="#1F1B1B"/>
<defs>
<clipPath id="clip0_154_6489">
<rect width="18" height="18" rx="2" fill="white"/>
</clipPath>
</defs>
</svg>
